<svg xmlns="http://www.w3.org/2000/svg" viewBox="0 0 19.96 19.96"><path class="cls-1" d="M10,19.46A9.48,9.48,0,1,1,19.46,10,9.49,9.49,0,0,1,10,19.46Z"/><path d="M10,1a9,9,0,1,1-9,9,9,9,0,0,1,9-9m0-1A10,10,0,1,0,20,10,10,10,0,0,0,10,0Z"/><path class="cls-1" d="M10,17.25A7.27,7.27,0,1,1,17.25,10,7.28,7.28,0,0,1,10,17.25Z"/><path d="M10,3.08A6.9,6.9,0,1,1,3.08,10,6.91,6.91,0,0,1,10,3.08m0-.75A7.65,7.65,0,1,0,17.62,10,7.66,7.66,0,0,0,10,2.33Z"/><path d="M10,15a5,5,0,1,1,5-5A5,5,0,0,1,10,15Z"/><path d="M10,5.23A4.75,4.75,0,1,1,5.23,10,4.75,4.75,0,0,1,10,5.23m0-.5A5.25,5.25,0,1,0,15.23,10,5.25,5.25,0,0,0,10,4.73Z"/></svg>
